<svg xmlns:xlink="http://www.w3.org/1999/xlink"  xmlns="http://www.w3.org/2000/svg" width="21" height="21" viewBox="0 0 21 21" fill="none">
<path d="M14.8318 6.74004L20.2739 9.06349C21.0919 9.41304 21.2003 10.5282 20.4651 11.0289L15.5727 14.3575C15.4 14.4749 15.265 14.639 15.1831 14.8311L12.8601 20.2739C12.5106 21.0919 11.3955 21.2004 10.895 20.465L7.56665 15.5719C7.44921 15.3992 7.28512 15.2642 7.09308 15.1822L1.64976 12.8602C0.831822 12.5107 0.723355 11.3955 1.45861 10.8948L6.351 7.56623C6.52364 7.44879 6.65864 7.28467 6.7406 7.09261L9.06362 1.64984C9.4131 0.8318 10.5281 0.723348 11.0287 1.45871L14.357 6.35181C14.4745 6.52448 14.6386 6.6595 14.8306 6.74148L14.8318 6.74004Z" fill="#0FEAB6"/>
</svg>